<svg width="25" height="25" viewBox="0 0 25 25" fill="none" xmlns="http://www.w3.org/2000/svg">
<path d="M19.9783 8.34609L19.8304 7.37943C19.7401 6.79509 19.4589 6.26407 19.0371 5.88101C18.6152 5.49794 18.0801 5.2877 17.527 5.28776H16.5076C16.4621 4.63131 16.1866 4.01752 15.7364 3.56937C15.2861 3.12122 14.6944 2.87181 14.0797 2.87109H10.9203C10.3056 2.87181 9.71388 3.12122 9.26365 3.56937C8.81341 4.01752 8.53794 4.63131 8.4924 5.28776H7.473C6.91991 5.2877 6.38476 5.49794 5.96292 5.88101C5.54108 6.26407 5.25994 6.79509 5.1696 7.37943L5.02175 8.34609C4.98558 8.57486 4.9946 8.8092 5.04822 9.03401C5.10184 9.25881 5.19887 9.46908 5.33306 9.65125C5.46724 9.83342 5.63559 9.98345 5.82726 10.0916C6.01892 10.1998 6.22963 10.2638 6.44581 10.2794L7.49634 21.0628C7.5082 21.5215 7.67742 21.9594 7.97168 22.293C8.26594 22.6265 8.66463 22.8323 9.0916 22.8711H15.9084C16.3354 22.8323 16.7341 22.6265 17.0283 22.293C17.3226 21.9594 17.4918 21.5215 17.5037 21.0628L18.5542 10.2794C18.7704 10.2638 18.9811 10.1998 19.1727 10.0916C19.3644 9.98345 19.5328 9.83342 19.6669 9.65125C19.8011 9.46908 19.8982 9.25881 19.9518 9.03401C20.0054 8.8092 20.0144 8.57486 19.9783 8.34609ZM10.9203 4.53776H14.0797C14.2821 4.53815 14.4782 4.6128 14.6354 4.74928C14.7925 4.88576 14.9013 5.07582 14.9435 5.28776H10.0565C10.0987 5.07582 10.2075 4.88576 10.3646 4.74928C10.5218 4.6128 10.7179 4.53815 10.9203 4.53776ZM6.7026 7.64609C6.73505 7.45244 6.82994 7.27712 6.97073 7.15072C7.11152 7.02432 7.28927 6.95485 7.473 6.95443H17.527C17.7107 6.95485 17.8885 7.02432 18.0293 7.15072C18.1701 7.27712 18.265 7.45244 18.2974 7.64609L18.4452 8.62109H6.55475L6.7026 7.64609ZM9.15385 21.2044C9.08593 21.1146 9.04763 21.0033 9.04491 20.8878L8.00994 10.2878H16.9901L15.9551 20.8878C15.9524 21.0033 15.9141 21.1146 15.8461 21.2044H9.15385Z" fill="#FFFF"/>
</svg>
